<svg id="Layer_1" data-name="Layer 1" xmlns="http://www.w3.org/2000/svg" viewBox="0 0 136.27 74.71"><defs><style>.cls-1{fill:#ccd5de;}.cls-2{fill:#e0e4e8;}.cls-3{fill:#bac1c9;}.cls-4{fill:none;stroke:#d9d9d9;stroke-linecap:round;stroke-miterlimit:10;stroke-width:2.45px;}.cls-5{fill:#d9d9d9;}</style></defs><title>Artboard 1</title><polygon class="cls-1" points="86.34 42.37 80.79 58.54 75.23 74.72 63.81 56.46 52.39 38.21 69.36 40.28 86.34 42.37"/><polygon class="cls-1" points="102.31 32.37 107.87 16.19 113.43 0.01 124.85 18.27 136.27 36.53 119.3 34.45 102.31 32.37"/><path class="cls-2" d="M136.23,36.51,92.46,30.07a3.87,3.87,0,0,0-3.92,2.45L75.19,74.7"/><path class="cls-3" d="M52.38,38.19l43.77,6.44a3.87,3.87,0,0,0,3.91-2.46L113.42,0"/><path class="cls-4" d="M36,36.13H28.07m14.31-7.91h-24"/><path class="cls-5" d="M11.13,27.87a1.37,1.37,0,1,1,1.37,1.37,1.36,1.36,0,0,1-1.37-1.37"/><path class="cls-4" d="M44.16,52.71l-21-.07m16-7.84H1.23"/></svg>