<?xml version="1.0" encoding="UTF-8"?>
<svg width="21px" height="16px" viewBox="0 0 21 16" version="1.1" xmlns="http://www.w3.org/2000/svg" xmlns:xlink="http://www.w3.org/1999/xlink">
    <!-- Generator: Sketch 52.6 (67491) - http://www.bohemiancoding.com/sketch -->
    <title>mail - material</title>
    <desc>Created with Sketch.</desc>
    <g id="Links" stroke="none" stroke-width="1" fill="none" fill-rule="evenodd">
        <path d="M19,4.02061856 L19,2 L10.5,7.02749141 L2,2 L2,4.02061856 L10.5,9 L19,4.02061856 Z M18.9302885,0 C19.5024067,0 19.9903826,0.199598802 20.3942308,0.598802395 C20.7980789,0.998005988 21,1.46905916 21,2.01197605 L21,13.988024 C21,14.5309408 20.7980789,15.001994 20.3942308,15.4011976 C19.9903826,15.8004012 19.5024067,16 18.9302885,16 L2.06971154,16 C1.49759329,16 1.0096174,15.8004012 0.605769231,15.4011976 C0.201921058,15.001994 0,14.5309408 0,13.988024 L0,2.01197605 C0,1.46905916 0.201921058,0.998005988 0.605769231,0.598802395 C1.0096174,0.199598802 1.49759329,0 2.06971154,0 L18.9302885,0 Z" id="mail---material" fill="#1E3F4D"></path>
    </g>
</svg>