<?xml version="1.0" encoding="utf-8"?>
<!-- Generator: Adobe Illustrator 16.0.3, SVG Export Plug-In . SVG Version: 6.00 Build 0)  -->
<!DOCTYPE svg PUBLIC "-//W3C//DTD SVG 1.1//EN" "http://www.w3.org/Graphics/SVG/1.1/DTD/svg11.dtd" [
	<!ENTITY ns_extend "http://ns.adobe.com/Extensibility/1.0/">
	<!ENTITY ns_ai "http://ns.adobe.com/AdobeIllustrator/10.0/">
	<!ENTITY ns_graphs "http://ns.adobe.com/Graphs/1.0/">
	<!ENTITY ns_vars "http://ns.adobe.com/Variables/1.0/">
	<!ENTITY ns_imrep "http://ns.adobe.com/ImageReplacement/1.0/">
	<!ENTITY ns_sfw "http://ns.adobe.com/SaveForWeb/1.0/">
	<!ENTITY ns_custom "http://ns.adobe.com/GenericCustomNamespace/1.0/">
	<!ENTITY ns_adobe_xpath "http://ns.adobe.com/XPath/1.0/">
]>
<svg version="1.1" id="Layer_1" xmlns:x="&ns_extend;" xmlns:i="&ns_ai;" xmlns:graph="&ns_graphs;"
	 xmlns="http://www.w3.org/2000/svg" xmlns:xlink="http://www.w3.org/1999/xlink" x="0px" y="0px" width="66.106px"
	 height="83.864px" viewBox="0 0 66.106 83.864" enable-background="new 0 0 66.106 83.864" xml:space="preserve">
<metadata>
	<sfw  xmlns="&ns_sfw;">
		<slices></slices>
		<sliceSourceBounds  height="108.817" width="1760.89" y="-802" x="491" bottomLeftOrigin="true"></sliceSourceBounds>
	</sfw>
</metadata>
<g>
	<g>
		<path fill="#FFFFFF" d="M64.926,68.129c-2.339-16.582-14.192-29.355-31.873-29.355c-17.685,0-29.535,12.773-31.875,29.355
			c-0.213,0.888-0.334,1.809-0.334,2.757c0,0.217,0.02,0.427,0.031,0.639c0.342,6.402,5.771,11.496,12.435,11.496h39.484
			c6.665,0,12.095-5.094,12.437-11.496c0.011-0.212,0.032-0.422,0.032-0.639C65.263,69.938,65.14,69.017,64.926,68.129"/>
	</g>
	<g>
		<path fill="#4D4D4D" d="M52.794,83.864H13.31c-7.077,0-12.909-5.4-13.277-12.295l-0.011-0.17C0.011,71.229,0,71.06,0,70.886
			c0-0.972,0.12-1.965,0.357-2.954C2.881,50.019,16.026,37.93,33.053,37.93s30.171,12.089,32.709,30.081
			c0.224,0.913,0.345,1.907,0.345,2.875c0,0.164-0.01,0.325-0.021,0.485l-0.013,0.196C65.705,78.464,59.872,83.864,52.794,83.864z
			 M33.053,39.617c-16.149,0-28.623,11.506-31.039,28.63c-0.222,0.938-0.326,1.8-0.326,2.639c0,0.137,0.01,0.27,0.019,0.402
			l0.012,0.189c0.32,6,5.412,10.699,11.592,10.699h39.484c6.181,0,11.273-4.699,11.594-10.697l0.014-0.223
			c0.009-0.122,0.018-0.245,0.018-0.371c0-0.835-0.105-1.696-0.313-2.56C61.675,51.123,49.202,39.617,33.053,39.617z"/>
	</g>
	<g>
		<path fill="#FFFFFF" d="M52.822,20.267c0,10.726-8.854,19.422-19.771,19.422s-19.768-8.696-19.768-19.422
			c0-10.727,8.851-19.423,19.768-19.423S52.822,9.54,52.822,20.267"/>
	</g>
	<g>
		<path fill="#4D4D4D" d="M33.052,40.532c-11.365,0-20.611-9.091-20.611-20.266S21.687,0,33.052,0
			c11.367,0,20.614,9.092,20.614,20.267S44.419,40.532,33.052,40.532z M33.052,1.688c-10.435,0-18.924,8.335-18.924,18.579
			s8.489,18.578,18.924,18.578c10.437,0,18.927-8.334,18.927-18.578S43.488,1.688,33.052,1.688z"/>
	</g>
	<g>
		<polyline fill="#FFFFFF" points="15.391,13.303 21,13.735 26.504,21.528 50.715,13.735 		"/>
	</g>
	<g>
		<path fill="#4D4D4D" d="M26.504,22.372c-0.269,0-0.528-0.129-0.689-0.356l-5.275-7.47l-5.213-0.401
			c-0.465-0.036-0.813-0.442-0.777-0.906c0.036-0.465,0.459-0.8,0.906-0.777l5.609,0.433c0.251,0.02,0.479,0.149,0.625,0.354
			l5.146,7.287l23.62-7.604c0.443-0.141,0.92,0.102,1.063,0.545c0.143,0.444-0.102,0.919-0.545,1.063l-24.211,7.793
			C26.678,22.359,26.59,22.372,26.504,22.372z"/>
	</g>
</g>
</svg>
