<?xml version="1.0" encoding="utf-8"?>
<!-- Generator: Adobe Illustrator 16.0.3, SVG Export Plug-In . SVG Version: 6.00 Build 0)  -->
<!DOCTYPE svg PUBLIC "-//W3C//DTD SVG 1.1//EN" "http://www.w3.org/Graphics/SVG/1.1/DTD/svg11.dtd" [
	<!ENTITY ns_extend "http://ns.adobe.com/Extensibility/1.0/">
	<!ENTITY ns_ai "http://ns.adobe.com/AdobeIllustrator/10.0/">
	<!ENTITY ns_graphs "http://ns.adobe.com/Graphs/1.0/">
	<!ENTITY ns_vars "http://ns.adobe.com/Variables/1.0/">
	<!ENTITY ns_imrep "http://ns.adobe.com/ImageReplacement/1.0/">
	<!ENTITY ns_sfw "http://ns.adobe.com/SaveForWeb/1.0/">
	<!ENTITY ns_custom "http://ns.adobe.com/GenericCustomNamespace/1.0/">
	<!ENTITY ns_adobe_xpath "http://ns.adobe.com/XPath/1.0/">
]>
<svg version="1.1" id="Layer_1" xmlns:x="&ns_extend;" xmlns:i="&ns_ai;" xmlns:graph="&ns_graphs;"
	 xmlns="http://www.w3.org/2000/svg" xmlns:xlink="http://www.w3.org/1999/xlink" x="0px" y="0px" width="118.688px"
	 height="83.864px" viewBox="0 0 118.688 83.864" enable-background="new 0 0 118.688 83.864" xml:space="preserve">
<metadata>
	<sfw  xmlns="&ns_sfw;">
		<slices></slices>
		<sliceSourceBounds  height="108.817" width="1760.89" y="-802" x="491" bottomLeftOrigin="true"></sliceSourceBounds>
	</sfw>
</metadata>
<g>
	<g>
		<path fill="#FFFFFF" d="M117.62,59.478c-1.554-10.956-9.433-19.396-21.185-19.396c-11.754,0-19.631,8.44-21.187,19.396
			c-0.14,0.586-0.222,1.195-0.222,1.822c0,0.142,0.014,0.281,0.021,0.421c0.228,4.231,3.834,7.596,8.264,7.596h26.244
			c4.43,0,8.039-3.364,8.266-7.596c0.007-0.14,0.021-0.279,0.021-0.421C117.844,60.673,117.762,60.063,117.62,59.478"/>
	</g>
	<g>
		<path fill="#4D4D4D" d="M109.557,70.16H83.313c-4.854,0-8.854-3.687-9.106-8.395l-0.007-0.112
			c-0.009-0.117-0.016-0.234-0.016-0.354c0-0.658,0.082-1.337,0.244-2.018c1.694-11.959,10.545-20.045,22.008-20.045
			c11.464,0,20.313,8.086,22.021,20.122c0.148,0.599,0.231,1.278,0.231,1.94c0,0.112-0.007,0.223-0.015,0.333l-0.008,0.129
			C118.413,66.473,114.412,70.16,109.557,70.16z M96.436,40.925c-10.752,0-18.74,7.329-20.351,18.672
			c-0.146,0.63-0.214,1.177-0.214,1.703c0,0.08,0.006,0.159,0.012,0.238l0.009,0.136c0.205,3.813,3.465,6.799,7.421,6.799h26.244
			c3.958,0,7.219-2.985,7.423-6.797l0.01-0.157C116.994,61.445,117,61.373,117,61.3c0-0.528-0.067-1.075-0.2-1.624
			C115.176,48.254,107.188,40.925,96.436,40.925z"/>
	</g>
	<g>
		<path fill="#FFFFFF" d="M109.469,27.347c0,7.068-5.836,12.799-13.033,12.799s-13.033-5.73-13.033-12.799
			c0-7.069,5.836-12.799,13.033-12.799S109.469,20.277,109.469,27.347"/>
	</g>
	<g>
		<path fill="#4D4D4D" d="M96.436,40.989c-7.652,0-13.877-6.12-13.877-13.643s6.225-13.643,13.877-13.643s13.877,6.12,13.877,13.643
			S104.088,40.989,96.436,40.989z M96.436,15.392c-6.721,0-12.189,5.363-12.189,11.955s5.469,11.955,12.189,11.955
			s12.189-5.363,12.189-11.955S103.156,15.392,96.436,15.392z"/>
	</g>
	<g>
		<path fill="#FFFFFF" d="M43.437,59.478c-1.554-10.956-9.433-19.396-21.185-19.396c-11.754,0-19.631,8.44-21.187,19.396
			c-0.14,0.586-0.222,1.195-0.222,1.822c0,0.142,0.014,0.281,0.021,0.421c0.228,4.231,3.834,7.596,8.264,7.596h26.244
			c4.43,0,8.039-3.364,8.266-7.596c0.007-0.14,0.021-0.279,0.021-0.421C43.66,60.673,43.578,60.063,43.437,59.478"/>
	</g>
	<g>
		<path fill="#4D4D4D" d="M35.373,70.16H9.129c-4.854,0-8.854-3.687-9.106-8.395l-0.007-0.112C0.007,61.536,0,61.419,0,61.3
			c0-0.658,0.082-1.337,0.244-2.018c1.694-11.959,10.545-20.045,22.008-20.045c11.464,0,20.313,8.086,22.021,20.122
			c0.148,0.599,0.231,1.278,0.231,1.94c0,0.112-0.007,0.223-0.015,0.333l-0.008,0.129C44.229,66.473,40.229,70.16,35.373,70.16z
			 M22.252,40.925c-10.752,0-18.74,7.329-20.351,18.672c-0.146,0.63-0.214,1.177-0.214,1.703c0,0.08,0.006,0.159,0.012,0.238
			l0.009,0.136c0.205,3.813,3.465,6.799,7.421,6.799h26.244c3.958,0,7.219-2.985,7.423-6.797l0.01-0.157
			c0.005-0.073,0.011-0.146,0.011-0.219c0-0.528-0.067-1.075-0.2-1.624C40.992,48.254,33.005,40.925,22.252,40.925z"/>
	</g>
	<g>
		<path fill="#FFFFFF" d="M35.285,27.347c0,7.068-5.836,12.799-13.033,12.799c-7.198,0-13.033-5.73-13.033-12.799
			c0-7.069,5.835-12.799,13.033-12.799C29.449,14.548,35.285,20.277,35.285,27.347"/>
	</g>
	<g>
		<path fill="#4D4D4D" d="M22.252,40.989c-7.652,0-13.877-6.12-13.877-13.643S14.6,13.704,22.252,13.704s13.877,6.12,13.877,13.643
			S29.904,40.989,22.252,40.989z M22.252,15.392c-6.721,0-12.189,5.363-12.189,11.955s5.469,11.955,12.189,11.955
			s12.189-5.363,12.189-11.955S28.973,15.392,22.252,15.392z"/>
	</g>
	<g>
		<path fill="#FFFFFF" d="M91.633,68.129c-2.34-16.582-14.193-29.355-31.875-29.355c-17.684,0-29.534,12.773-31.875,29.355
			c-0.211,0.888-0.334,1.809-0.334,2.757c0,0.217,0.021,0.427,0.033,0.639c0.342,6.402,5.769,11.496,12.434,11.496H79.5
			c6.666,0,12.094-5.094,12.437-11.496c0.011-0.212,0.032-0.422,0.032-0.639C91.969,69.938,91.846,69.017,91.633,68.129"/>
	</g>
	<g>
		<path fill="#4D4D4D" d="M79.5,83.864H40.016c-7.076,0-12.908-5.4-13.276-12.295l-0.011-0.16c-0.012-0.173-0.023-0.347-0.023-0.523
			c0-0.962,0.12-1.955,0.356-2.952C29.587,50.019,42.732,37.93,59.758,37.93c17.026,0,30.172,12.089,32.711,30.081
			c0.223,0.915,0.344,1.909,0.344,2.875c0,0.164-0.01,0.325-0.021,0.485l-0.013,0.196C92.41,78.464,86.577,83.864,79.5,83.864z
			 M59.758,39.617c-16.148,0-28.622,11.506-31.039,28.63c-0.222,0.945-0.326,1.808-0.326,2.639c0,0.137,0.011,0.271,0.02,0.405
			l0.013,0.183c0.32,6.004,5.411,10.703,11.591,10.703H79.5c6.18,0,11.272-4.699,11.594-10.697l0.014-0.223
			c0.009-0.122,0.018-0.245,0.018-0.371c0-0.834-0.105-1.695-0.313-2.56C88.381,51.123,75.907,39.617,59.758,39.617z"/>
	</g>
	<g>
		<path fill="#FFFFFF" d="M79.527,20.267c0,10.726-8.853,19.422-19.77,19.422S39.99,30.992,39.99,20.267
			c0-10.727,8.851-19.423,19.768-19.423S79.527,9.54,79.527,20.267"/>
	</g>
	<g>
		<path fill="#4D4D4D" d="M59.758,40.532c-11.365,0-20.611-9.091-20.611-20.266S48.393,0,59.758,0
			c11.366,0,20.613,9.092,20.613,20.267S71.124,40.532,59.758,40.532z M59.758,1.688c-10.435,0-18.924,8.335-18.924,18.579
			s8.489,18.578,18.924,18.578c10.436,0,18.926-8.334,18.926-18.578S70.193,1.688,59.758,1.688z"/>
	</g>
	<g>
		<polyline fill="#FFFFFF" points="42.097,13.303 47.707,13.735 53.209,21.528 77.42,13.735 		"/>
	</g>
	<g>
		<path fill="#4D4D4D" d="M53.209,22.372c-0.269,0-0.528-0.129-0.689-0.357l-5.273-7.469l-5.214-0.401
			c-0.465-0.036-0.813-0.442-0.777-0.906c0.036-0.465,0.451-0.8,0.906-0.777l5.61,0.433c0.251,0.02,0.48,0.149,0.625,0.355
			l5.145,7.286l23.62-7.604c0.443-0.141,0.92,0.102,1.063,0.545c0.143,0.444-0.102,0.919-0.545,1.063l-24.211,7.793
			C53.383,22.359,53.295,22.372,53.209,22.372z"/>
	</g>
</g>
</svg>
