<?xml version="1.0" encoding="utf-8"?>
<!-- Generator: Adobe Illustrator 16.0.3, SVG Export Plug-In . SVG Version: 6.00 Build 0)  -->
<!DOCTYPE svg PUBLIC "-//W3C//DTD SVG 1.1//EN" "http://www.w3.org/Graphics/SVG/1.1/DTD/svg11.dtd" [
	<!ENTITY ns_extend "http://ns.adobe.com/Extensibility/1.0/">
	<!ENTITY ns_ai "http://ns.adobe.com/AdobeIllustrator/10.0/">
	<!ENTITY ns_graphs "http://ns.adobe.com/Graphs/1.0/">
	<!ENTITY ns_vars "http://ns.adobe.com/Variables/1.0/">
	<!ENTITY ns_imrep "http://ns.adobe.com/ImageReplacement/1.0/">
	<!ENTITY ns_sfw "http://ns.adobe.com/SaveForWeb/1.0/">
	<!ENTITY ns_custom "http://ns.adobe.com/GenericCustomNamespace/1.0/">
	<!ENTITY ns_adobe_xpath "http://ns.adobe.com/XPath/1.0/">
]>
<svg version="1.1" id="Layer_1" xmlns:x="&ns_extend;" xmlns:i="&ns_ai;" xmlns:graph="&ns_graphs;"
	 xmlns="http://www.w3.org/2000/svg" xmlns:xlink="http://www.w3.org/1999/xlink" x="0px" y="0px" width="100.829px"
	 height="80.246px" viewBox="0 0 100.829 80.246" enable-background="new 0 0 100.829 80.246" xml:space="preserve">
<metadata>
	<sfw  xmlns="&ns_sfw;">
		<slices></slices>
		<sliceSourceBounds  height="80.246" width="100.828" x="429.085" y="323.377" bottomLeftOrigin="true"></sliceSourceBounds>
	</sfw>
</metadata>
<g>
	<g>
		<path fill="#4D4D4D" d="M100,80.244H0.83c-0.458,0-0.83-0.371-0.83-0.83s0.372-0.83,0.83-0.83H100c0.457,0,0.828,0.371,0.828,0.83
			S100.457,80.244,100,80.244z"/>
	</g>
	<g>
		<path fill="#4D4D4D" d="M78.204,80.246h-55.58c-0.233,0-0.456-0.098-0.613-0.27c-0.158-0.172-0.235-0.402-0.213-0.635l5.53-60.559
			c0.039-0.428,0.397-0.754,0.826-0.754h8.467v-4.236C36.621,6.187,42.808,0,50.413,0s13.79,6.187,13.79,13.792v4.234h8.469
			c0.43,0,0.787,0.327,0.826,0.754l5.53,60.559c0.021,0.232-0.056,0.463-0.213,0.635C78.66,80.148,78.437,80.246,78.204,80.246z
			 M23.532,78.586h53.763l-5.379-58.899h-7.712v4.446c2.505,0.397,4.427,2.573,4.427,5.188c0,2.896-2.356,5.254-5.254,5.254
			c-2.896,0-5.255-2.356-5.255-5.254c0-2.615,1.919-4.789,4.423-5.188v-4.446H38.282v4.446c2.504,0.397,4.425,2.573,4.425,5.188
			c0,2.896-2.357,5.254-5.254,5.254c-2.897,0-5.254-2.356-5.254-5.254c0-2.615,1.92-4.791,4.423-5.188v-4.446h-7.71L23.532,78.586z
			 M62.544,25.826c-1.582,0.375-2.764,1.801-2.764,3.498c0,1.982,1.611,3.594,3.596,3.594c1.982,0,3.594-1.611,3.594-3.594
			c0-1.697-1.183-3.123-2.767-3.5v2.393c0,0.458-0.37,0.83-0.829,0.83s-0.83-0.372-0.83-0.83V25.826z M36.622,25.824
			c-1.583,0.375-2.765,1.803-2.765,3.5c0,1.982,1.614,3.594,3.595,3.594c1.981,0,3.595-1.611,3.595-3.594
			c0-1.697-1.182-3.123-2.766-3.5v2.393c0,0.458-0.372,0.83-0.83,0.83s-0.83-0.372-0.83-0.83L36.622,25.824L36.622,25.824z
			 M38.282,18.027h24.263v-4.234c0-6.69-5.44-12.133-12.131-12.133c-6.689,0-12.132,5.443-12.132,12.133V18.027z"/>
	</g>
</g>
</svg>
